<svg xmlns="http://www.w3.org/2000/svg" xml:space="preserve" width="36" height="36"
    viewBox="0 0 100 100"><path d="M76.26 50c4.76-3.42 7.86-9 7.86-15.3 0-10.38-8.45-18.82-18.83-18.82-6.29 0-11.88 3.11-15.29 7.86-3.42-4.76-9-7.86-15.3-7.86-10.38 0-18.82 8.45-18.82 18.82 0 6.29 3.1 11.88 7.86 15.3-4.76 3.42-7.86 9-7.86 15.29 0 10.38 8.44 18.83 18.82 18.83 6.29 0 11.88-3.11 15.3-7.86 3.42 4.76 9 7.86 15.29 7.86 10.38 0 18.83-8.45 18.83-18.83 0-6.29-3.11-11.87-7.86-15.29zM65.29 22.94c6.49 0 11.77 5.28 11.77 11.77 0 4.66-2.73 8.7-6.67 10.6-1.79-7.78-7.92-13.91-15.7-15.7 1.9-3.94 5.94-6.67 10.6-6.67zM22.94 34.7c0-6.49 5.28-11.77 11.77-11.77 4.66 0 8.7 2.73 10.6 6.67-7.78 1.79-13.91 7.92-15.7 15.7a11.758 11.758 0 0 1-6.67-10.6zM34.7 77.06c-6.49 0-11.77-5.28-11.77-11.77 0-4.66 2.73-8.7 6.67-10.6 1.78 7.78 7.92 13.91 15.7 15.7a11.758 11.758 0 0 1-10.6 6.67zm18.74-13.63c-1.1.28-2.25.43-3.44.43s-2.34-.15-3.44-.43c-.08-.02-.17-.04-.25-.07-4.68-1.29-8.38-4.99-9.68-9.68-.02-.08-.05-.17-.07-.25-.28-1.1-.43-2.25-.43-3.44s.15-2.34.43-3.44c.02-.08.04-.17.07-.25 1.29-4.68 4.99-8.38 9.67-9.67.08-.02.17-.05.25-.07 1.1-.28 2.25-.43 3.44-.43s2.34.15 3.44.43c.08.02.17.04.25.07 4.68 1.3 8.38 4.99 9.67 9.68.03.08.05.17.07.25.28 1.1.43 2.25.43 3.44s-.15 2.34-.43 3.44c-.02.08-.04.17-.07.25a13.902 13.902 0 0 1-9.67 9.67c-.07.03-.16.05-.24.07zm11.85 13.63c-4.66 0-8.7-2.73-10.6-6.67 7.77-1.79 13.91-7.92 15.7-15.7 3.94 1.9 6.67 5.94 6.67 10.6 0 6.49-5.28 11.77-11.77 11.77z"/></svg>