<svg xmlns="http://www.w3.org/2000/svg" x="0px" y="0px" viewBox="0 0 100 100" width="36px"
    height="36px" fill="#f5fff5" xml:space="preserve">
    <path d="M76.26,50c4.76-3.42,7.86-9,7.86-15.3c0-10.38-8.45-18.82-18.83-18.82c-6.29,0-11.88,3.11-15.29,7.86     c-3.42-4.76-9-7.86-15.3-7.86c-10.38,0-18.82,8.45-18.82,18.82c0,6.29,3.1,11.88,7.86,15.3c-4.76,3.42-7.86,9-7.86,15.29     c0,10.38,8.44,18.83,18.82,18.83c6.29,0,11.88-3.11,15.3-7.86c3.42,4.76,9,7.86,15.29,7.86c10.38,0,18.83-8.45,18.83-18.83     C84.12,59,81.01,53.42,76.26,50z M65.29,22.94c6.49,0,11.77,5.28,11.77,11.77c0,4.66-2.73,8.7-6.67,10.6     c-1.79-7.78-7.92-13.91-15.7-15.7C56.59,25.67,60.63,22.94,65.29,22.94z M22.94,34.7c0-6.49,5.28-11.77,11.77-11.77     c4.66,0,8.7,2.73,10.6,6.67c-7.78,1.79-13.91,7.92-15.7,15.7C25.67,43.41,22.94,39.37,22.94,34.7z M34.7,77.06     c-6.49,0-11.77-5.28-11.77-11.77c0-4.66,2.73-8.7,6.67-10.6c1.78,7.78,7.92,13.91,15.7,15.7C43.41,74.33,39.37,77.06,34.7,77.06z      M53.44,63.43c-1.1,0.28-2.25,0.43-3.44,0.43c-1.19,0-2.34-0.15-3.44-0.43c-0.08-0.02-0.17-0.04-0.25-0.07     c-4.68-1.29-8.38-4.99-9.68-9.68c-0.02-0.08-0.05-0.17-0.07-0.25c-0.28-1.1-0.43-2.25-0.43-3.44c0-1.19,0.15-2.34,0.43-3.44     c0.02-0.08,0.04-0.17,0.07-0.25c1.29-4.68,4.99-8.38,9.67-9.67c0.08-0.02,0.17-0.05,0.25-0.07c1.1-0.28,2.25-0.43,3.44-0.43     c1.19,0,2.34,0.15,3.44,0.43c0.08,0.02,0.17,0.04,0.25,0.07c4.68,1.3,8.38,4.99,9.67,9.68c0.03,0.08,0.05,0.17,0.07,0.25     c0.28,1.1,0.43,2.25,0.43,3.44c0,1.19-0.15,2.34-0.43,3.44c-0.02,0.08-0.04,0.17-0.07,0.25c-1.29,4.68-4.99,8.38-9.67,9.67     C53.61,63.39,53.52,63.41,53.44,63.43z M65.29,77.06c-4.66,0-8.7-2.73-10.6-6.67c7.77-1.79,13.91-7.92,15.7-15.7     c3.94,1.9,6.67,5.94,6.67,10.6C77.06,71.78,71.78,77.06,65.29,77.06z"></path>
</svg>